<mxfile host="Electron" modified="2023-11-08T08:37:49.472Z" agent="Mozilla/5.0 (Windows NT 10.0; Win64; x64) AppleWebKit/537.36 (KHTML, like Gecko) draw.io/22.0.3 Chrome/114.0.5735.289 Electron/25.8.4 Safari/537.36" etag="E4Tif4I7l3Wb8_B-037i" version="22.0.3" type="device">
  <diagram name="PÃ¡gina-1" id="QVebJg4D9ghDuDvVdL-I">
    <mxGraphModel dx="1036" dy="654" grid="1" gridSize="10" guides="1" tooltips="1" connect="1" arrows="1" fold="1" page="1" pageScale="1" pageWidth="827" pageHeight="1169" math="0" shadow="0">
      <root>
        <mxCell id="0" />
        <mxCell id="1" parent="0" />
        <mxCell id="DLv4TbYATxQfls5Tl5vU-1" value="empleado" style="whiteSpace=wrap;html=1;align=center;" parent="1" vertex="1">
          <mxGeometry x="210" y="200" width="100" height="40" as="geometry" />
        </mxCell>
        <mxCell id="DLv4TbYATxQfls5Tl5vU-2" value="departamento" style="whiteSpace=wrap;html=1;align=center;" parent="1" vertex="1">
          <mxGeometry x="490" y="200" width="100" height="40" as="geometry" />
        </mxCell>
        <mxCell id="DLv4TbYATxQfls5Tl5vU-3" value="trabaja" style="shape=rhombus;perimeter=rhombusPerimeter;whiteSpace=wrap;html=1;align=center;" parent="1" vertex="1">
          <mxGeometry x="340" y="190" width="120" height="60" as="geometry" />
        </mxCell>
        <mxCell id="DLv4TbYATxQfls5Tl5vU-4" value="gestiona" style="shape=rhombus;perimeter=rhombusPerimeter;whiteSpace=wrap;html=1;align=center;" parent="1" vertex="1">
          <mxGeometry x="480" y="270" width="120" height="60" as="geometry" />
        </mxCell>
        <mxCell id="DLv4TbYATxQfls5Tl5vU-5" value="proyecto" style="whiteSpace=wrap;html=1;align=center;" parent="1" vertex="1">
          <mxGeometry x="490" y="360" width="100" height="40" as="geometry" />
        </mxCell>
        <mxCell id="DLv4TbYATxQfls5Tl5vU-7" value="participa" style="shape=rhombus;perimeter=rhombusPerimeter;whiteSpace=wrap;html=1;align=center;" parent="1" vertex="1">
          <mxGeometry x="200" y="350" width="120" height="60" as="geometry" />
        </mxCell>
        <mxCell id="DLv4TbYATxQfls5Tl5vU-9" value="" style="endArrow=none;html=1;rounded=0;exitX=0.5;exitY=0;exitDx=0;exitDy=0;entryX=0.5;entryY=1;entryDx=0;entryDy=0;" parent="1" source="DLv4TbYATxQfls5Tl5vU-7" target="DLv4TbYATxQfls5Tl5vU-1" edge="1">
          <mxGeometry relative="1" as="geometry">
            <mxPoint x="330" y="340" as="sourcePoint" />
            <mxPoint x="490" y="340" as="targetPoint" />
          </mxGeometry>
        </mxCell>
        <mxCell id="DLv4TbYATxQfls5Tl5vU-10" value="" style="endArrow=none;html=1;rounded=0;exitX=1;exitY=0.5;exitDx=0;exitDy=0;entryX=0;entryY=0.5;entryDx=0;entryDy=0;" parent="1" source="DLv4TbYATxQfls5Tl5vU-7" target="DLv4TbYATxQfls5Tl5vU-5" edge="1">
          <mxGeometry relative="1" as="geometry">
            <mxPoint x="330" y="340" as="sourcePoint" />
            <mxPoint x="490" y="340" as="targetPoint" />
          </mxGeometry>
        </mxCell>
        <mxCell id="DLv4TbYATxQfls5Tl5vU-11" value="" style="endArrow=none;html=1;rounded=0;exitX=0.5;exitY=0;exitDx=0;exitDy=0;entryX=0.5;entryY=1;entryDx=0;entryDy=0;" parent="1" source="DLv4TbYATxQfls5Tl5vU-5" target="DLv4TbYATxQfls5Tl5vU-4" edge="1">
          <mxGeometry relative="1" as="geometry">
            <mxPoint x="330" y="340" as="sourcePoint" />
            <mxPoint x="490" y="340" as="targetPoint" />
          </mxGeometry>
        </mxCell>
        <mxCell id="DLv4TbYATxQfls5Tl5vU-12" value="" style="endArrow=none;html=1;rounded=0;entryX=0.5;entryY=0;entryDx=0;entryDy=0;exitX=0.5;exitY=1;exitDx=0;exitDy=0;" parent="1" source="DLv4TbYATxQfls5Tl5vU-2" target="DLv4TbYATxQfls5Tl5vU-4" edge="1">
          <mxGeometry relative="1" as="geometry">
            <mxPoint x="330" y="340" as="sourcePoint" />
            <mxPoint x="490" y="340" as="targetPoint" />
          </mxGeometry>
        </mxCell>
        <mxCell id="DLv4TbYATxQfls5Tl5vU-13" value="" style="endArrow=none;html=1;rounded=0;exitX=1;exitY=0.5;exitDx=0;exitDy=0;" parent="1" source="DLv4TbYATxQfls5Tl5vU-3" target="DLv4TbYATxQfls5Tl5vU-2" edge="1">
          <mxGeometry relative="1" as="geometry">
            <mxPoint x="330" y="340" as="sourcePoint" />
            <mxPoint x="490" y="340" as="targetPoint" />
          </mxGeometry>
        </mxCell>
        <mxCell id="DLv4TbYATxQfls5Tl5vU-14" value="" style="endArrow=none;html=1;rounded=0;" parent="1" source="DLv4TbYATxQfls5Tl5vU-1" target="DLv4TbYATxQfls5Tl5vU-3" edge="1">
          <mxGeometry relative="1" as="geometry">
            <mxPoint x="330" y="340" as="sourcePoint" />
            <mxPoint x="490" y="340" as="targetPoint" />
          </mxGeometry>
        </mxCell>
        <mxCell id="DLv4TbYATxQfls5Tl5vU-15" value="es jefe de" style="shape=rhombus;perimeter=rhombusPerimeter;whiteSpace=wrap;html=1;align=center;" parent="1" vertex="1">
          <mxGeometry x="100" y="90" width="120" height="60" as="geometry" />
        </mxCell>
        <mxCell id="DLv4TbYATxQfls5Tl5vU-16" value="" style="endArrow=none;html=1;rounded=0;exitX=0;exitY=0;exitDx=0;exitDy=0;" parent="1" source="DLv4TbYATxQfls5Tl5vU-1" target="DLv4TbYATxQfls5Tl5vU-15" edge="1">
          <mxGeometry relative="1" as="geometry">
            <mxPoint x="330" y="340" as="sourcePoint" />
            <mxPoint x="490" y="340" as="targetPoint" />
            <Array as="points">
              <mxPoint x="160" y="200" />
            </Array>
          </mxGeometry>
        </mxCell>
        <mxCell id="DLv4TbYATxQfls5Tl5vU-17" value="" style="endArrow=none;html=1;rounded=0;entryX=0.188;entryY=0.075;entryDx=0;entryDy=0;entryPerimeter=0;" parent="1" source="DLv4TbYATxQfls5Tl5vU-15" target="DLv4TbYATxQfls5Tl5vU-1" edge="1">
          <mxGeometry relative="1" as="geometry">
            <mxPoint x="330" y="340" as="sourcePoint" />
            <mxPoint x="490" y="340" as="targetPoint" />
            <Array as="points">
              <mxPoint x="230" y="120" />
            </Array>
          </mxGeometry>
        </mxCell>
        <mxCell id="DLv4TbYATxQfls5Tl5vU-18" value="Tiempo_horas" style="ellipse;whiteSpace=wrap;html=1;align=center;" parent="1" vertex="1">
          <mxGeometry x="110" y="420" width="100" height="40" as="geometry" />
        </mxCell>
        <mxCell id="DLv4TbYATxQfls5Tl5vU-19" value="" style="endArrow=none;html=1;rounded=0;" parent="1" source="DLv4TbYATxQfls5Tl5vU-18" target="DLv4TbYATxQfls5Tl5vU-7" edge="1">
          <mxGeometry relative="1" as="geometry">
            <mxPoint x="330" y="340" as="sourcePoint" />
            <mxPoint x="490" y="340" as="targetPoint" />
          </mxGeometry>
        </mxCell>
        <mxCell id="DLv4TbYATxQfls5Tl5vU-20" value="Nombre" style="ellipse;whiteSpace=wrap;html=1;align=center;" parent="1" vertex="1">
          <mxGeometry x="60" y="200" width="100" height="40" as="geometry" />
        </mxCell>
        <mxCell id="DLv4TbYATxQfls5Tl5vU-21" value="" style="endArrow=none;html=1;rounded=0;" parent="1" source="DLv4TbYATxQfls5Tl5vU-20" target="DLv4TbYATxQfls5Tl5vU-1" edge="1">
          <mxGeometry relative="1" as="geometry">
            <mxPoint x="170" y="300" as="sourcePoint" />
            <mxPoint x="448.23" y="330" as="targetPoint" />
          </mxGeometry>
        </mxCell>
        <mxCell id="DLv4TbYATxQfls5Tl5vU-22" value="Apellidos" style="ellipse;whiteSpace=wrap;html=1;align=center;" parent="1" vertex="1">
          <mxGeometry x="60" y="240" width="100" height="40" as="geometry" />
        </mxCell>
        <mxCell id="DLv4TbYATxQfls5Tl5vU-23" value="Direccion" style="ellipse;whiteSpace=wrap;html=1;align=center;" parent="1" vertex="1">
          <mxGeometry x="60" y="280" width="100" height="40" as="geometry" />
        </mxCell>
        <mxCell id="DLv4TbYATxQfls5Tl5vU-25" value="Fecha_nacimiento" style="ellipse;whiteSpace=wrap;html=1;align=center;" parent="1" vertex="1">
          <mxGeometry x="220" y="80" width="100" height="40" as="geometry" />
        </mxCell>
        <mxCell id="DLv4TbYATxQfls5Tl5vU-26" value="Sexo" style="ellipse;whiteSpace=wrap;html=1;align=center;" parent="1" vertex="1">
          <mxGeometry x="320" y="80" width="100" height="40" as="geometry" />
        </mxCell>
        <mxCell id="DLv4TbYATxQfls5Tl5vU-27" value="Casado" style="ellipse;whiteSpace=wrap;html=1;align=center;" parent="1" vertex="1">
          <mxGeometry x="420" y="80" width="100" height="40" as="geometry" />
        </mxCell>
        <mxCell id="DLv4TbYATxQfls5Tl5vU-28" value="" style="endArrow=none;html=1;rounded=0;" parent="1" source="DLv4TbYATxQfls5Tl5vU-22" target="DLv4TbYATxQfls5Tl5vU-1" edge="1">
          <mxGeometry relative="1" as="geometry">
            <mxPoint x="330" y="340" as="sourcePoint" />
            <mxPoint x="490" y="340" as="targetPoint" />
          </mxGeometry>
        </mxCell>
        <mxCell id="DLv4TbYATxQfls5Tl5vU-29" value="" style="endArrow=none;html=1;rounded=0;" parent="1" source="DLv4TbYATxQfls5Tl5vU-23" target="DLv4TbYATxQfls5Tl5vU-1" edge="1">
          <mxGeometry relative="1" as="geometry">
            <mxPoint x="330" y="340" as="sourcePoint" />
            <mxPoint x="490" y="340" as="targetPoint" />
          </mxGeometry>
        </mxCell>
        <mxCell id="DLv4TbYATxQfls5Tl5vU-30" value="" style="endArrow=none;html=1;rounded=0;" parent="1" source="DLv4TbYATxQfls5Tl5vU-42" target="DLv4TbYATxQfls5Tl5vU-1" edge="1">
          <mxGeometry relative="1" as="geometry">
            <mxPoint x="132.36067977499806" y="322.1114561800017" as="sourcePoint" />
            <mxPoint x="490" y="340" as="targetPoint" />
          </mxGeometry>
        </mxCell>
        <mxCell id="DLv4TbYATxQfls5Tl5vU-31" value="" style="endArrow=none;html=1;rounded=0;" parent="1" source="DLv4TbYATxQfls5Tl5vU-25" target="DLv4TbYATxQfls5Tl5vU-1" edge="1">
          <mxGeometry relative="1" as="geometry">
            <mxPoint x="330" y="340" as="sourcePoint" />
            <mxPoint x="490" y="340" as="targetPoint" />
          </mxGeometry>
        </mxCell>
        <mxCell id="DLv4TbYATxQfls5Tl5vU-32" value="" style="endArrow=none;html=1;rounded=0;" parent="1" source="DLv4TbYATxQfls5Tl5vU-26" target="DLv4TbYATxQfls5Tl5vU-1" edge="1">
          <mxGeometry relative="1" as="geometry">
            <mxPoint x="330" y="340" as="sourcePoint" />
            <mxPoint x="490" y="340" as="targetPoint" />
          </mxGeometry>
        </mxCell>
        <mxCell id="DLv4TbYATxQfls5Tl5vU-33" value="" style="endArrow=none;html=1;rounded=0;" parent="1" source="DLv4TbYATxQfls5Tl5vU-1" target="DLv4TbYATxQfls5Tl5vU-27" edge="1">
          <mxGeometry relative="1" as="geometry">
            <mxPoint x="330" y="340" as="sourcePoint" />
            <mxPoint x="490" y="340" as="targetPoint" />
          </mxGeometry>
        </mxCell>
        <mxCell id="DLv4TbYATxQfls5Tl5vU-34" value="Nombre" style="ellipse;whiteSpace=wrap;html=1;align=center;" parent="1" vertex="1">
          <mxGeometry x="620" y="360" width="100" height="40" as="geometry" />
        </mxCell>
        <mxCell id="DLv4TbYATxQfls5Tl5vU-35" value="" style="endArrow=none;html=1;rounded=0;" parent="1" source="DLv4TbYATxQfls5Tl5vU-5" target="DLv4TbYATxQfls5Tl5vU-34" edge="1">
          <mxGeometry relative="1" as="geometry">
            <mxPoint x="330" y="340" as="sourcePoint" />
            <mxPoint x="490" y="340" as="targetPoint" />
          </mxGeometry>
        </mxCell>
        <mxCell id="DLv4TbYATxQfls5Tl5vU-38" value="Sueldo" style="ellipse;whiteSpace=wrap;html=1;align=center;" parent="1" vertex="1">
          <mxGeometry x="420" y="120" width="100" height="40" as="geometry" />
        </mxCell>
        <mxCell id="DLv4TbYATxQfls5Tl5vU-39" value="" style="endArrow=none;html=1;rounded=0;" parent="1" source="DLv4TbYATxQfls5Tl5vU-1" target="DLv4TbYATxQfls5Tl5vU-38" edge="1">
          <mxGeometry relative="1" as="geometry">
            <mxPoint x="330" y="340" as="sourcePoint" />
            <mxPoint x="490" y="340" as="targetPoint" />
          </mxGeometry>
        </mxCell>
        <mxCell id="DLv4TbYATxQfls5Tl5vU-40" value="Nombre" style="ellipse;whiteSpace=wrap;html=1;align=center;" parent="1" vertex="1">
          <mxGeometry x="620" y="200" width="100" height="40" as="geometry" />
        </mxCell>
        <mxCell id="DLv4TbYATxQfls5Tl5vU-41" value="" style="endArrow=none;html=1;rounded=0;" parent="1" source="DLv4TbYATxQfls5Tl5vU-2" target="DLv4TbYATxQfls5Tl5vU-40" edge="1">
          <mxGeometry relative="1" as="geometry">
            <mxPoint x="330" y="340" as="sourcePoint" />
            <mxPoint x="490" y="340" as="targetPoint" />
          </mxGeometry>
        </mxCell>
        <mxCell id="DLv4TbYATxQfls5Tl5vU-42" value="TelÃ©fono" style="ellipse;shape=doubleEllipse;margin=3;whiteSpace=wrap;html=1;align=center;" parent="1" vertex="1">
          <mxGeometry x="60" y="320" width="100" height="40" as="geometry" />
        </mxCell>
        <mxCell id="DLv4TbYATxQfls5Tl5vU-43" value="Id proyecto" style="ellipse;whiteSpace=wrap;html=1;align=center;fontStyle=4;" parent="1" vertex="1">
          <mxGeometry x="490" y="420" width="100" height="40" as="geometry" />
        </mxCell>
        <mxCell id="DLv4TbYATxQfls5Tl5vU-44" value="" style="endArrow=none;html=1;rounded=0;" parent="1" source="DLv4TbYATxQfls5Tl5vU-43" target="DLv4TbYATxQfls5Tl5vU-5" edge="1">
          <mxGeometry relative="1" as="geometry">
            <mxPoint x="330" y="340" as="sourcePoint" />
            <mxPoint x="490" y="340" as="targetPoint" />
          </mxGeometry>
        </mxCell>
        <mxCell id="DLv4TbYATxQfls5Tl5vU-45" value="Id dep" style="ellipse;whiteSpace=wrap;html=1;align=center;fontStyle=4;" parent="1" vertex="1">
          <mxGeometry x="620" y="150" width="100" height="40" as="geometry" />
        </mxCell>
        <mxCell id="DLv4TbYATxQfls5Tl5vU-46" value="" style="endArrow=none;html=1;rounded=0;" parent="1" source="DLv4TbYATxQfls5Tl5vU-2" target="DLv4TbYATxQfls5Tl5vU-45" edge="1">
          <mxGeometry relative="1" as="geometry">
            <mxPoint x="330" y="340" as="sourcePoint" />
            <mxPoint x="490" y="340" as="targetPoint" />
          </mxGeometry>
        </mxCell>
        <mxCell id="DLv4TbYATxQfls5Tl5vU-47" value="(1,1)" style="text;strokeColor=none;fillColor=none;spacingLeft=4;spacingRight=4;overflow=hidden;rotatable=0;points=[[0,0.5],[1,0.5]];portConstraint=eastwest;fontSize=12;whiteSpace=wrap;html=1;" parent="1" vertex="1">
          <mxGeometry x="450" y="190" width="40" height="30" as="geometry" />
        </mxCell>
        <mxCell id="DLv4TbYATxQfls5Tl5vU-48" value="(1,n)" style="text;strokeColor=none;fillColor=none;spacingLeft=4;spacingRight=4;overflow=hidden;rotatable=0;points=[[0,0.5],[1,0.5]];portConstraint=eastwest;fontSize=12;whiteSpace=wrap;html=1;" parent="1" vertex="1">
          <mxGeometry x="310" y="190" width="40" height="30" as="geometry" />
        </mxCell>
        <mxCell id="DLv4TbYATxQfls5Tl5vU-49" value="(1,n)" style="text;strokeColor=none;fillColor=none;spacingLeft=4;spacingRight=4;overflow=hidden;rotatable=0;points=[[0,0.5],[1,0.5]];portConstraint=eastwest;fontSize=12;whiteSpace=wrap;html=1;" parent="1" vertex="1">
          <mxGeometry x="160" y="170" width="40" height="30" as="geometry" />
        </mxCell>
        <mxCell id="DLv4TbYATxQfls5Tl5vU-50" value="(0,1)" style="text;strokeColor=none;fillColor=none;spacingLeft=4;spacingRight=4;overflow=hidden;rotatable=0;points=[[0,0.5],[1,0.5]];portConstraint=eastwest;fontSize=12;whiteSpace=wrap;html=1;" parent="1" vertex="1">
          <mxGeometry x="190" y="130" width="40" height="30" as="geometry" />
        </mxCell>
        <mxCell id="DLv4TbYATxQfls5Tl5vU-51" value="(0,n)" style="text;strokeColor=none;fillColor=none;spacingLeft=4;spacingRight=4;overflow=hidden;rotatable=0;points=[[0,0.5],[1,0.5]];portConstraint=eastwest;fontSize=12;whiteSpace=wrap;html=1;" parent="1" vertex="1">
          <mxGeometry x="450" y="350" width="40" height="30" as="geometry" />
        </mxCell>
        <mxCell id="DLv4TbYATxQfls5Tl5vU-52" value="(1,n)" style="text;strokeColor=none;fillColor=none;spacingLeft=4;spacingRight=4;overflow=hidden;rotatable=0;points=[[0,0.5],[1,0.5]];portConstraint=eastwest;fontSize=12;whiteSpace=wrap;html=1;" parent="1" vertex="1">
          <mxGeometry x="260" y="240" width="40" height="30" as="geometry" />
        </mxCell>
        <mxCell id="DLv4TbYATxQfls5Tl5vU-53" value="(0,n)" style="text;strokeColor=none;fillColor=none;spacingLeft=4;spacingRight=4;overflow=hidden;rotatable=0;points=[[0,0.5],[1,0.5]];portConstraint=eastwest;fontSize=12;whiteSpace=wrap;html=1;" parent="1" vertex="1">
          <mxGeometry x="540" y="330" width="40" height="30" as="geometry" />
        </mxCell>
        <mxCell id="DLv4TbYATxQfls5Tl5vU-54" value="(1,1)" style="text;strokeColor=none;fillColor=none;spacingLeft=4;spacingRight=4;overflow=hidden;rotatable=0;points=[[0,0.5],[1,0.5]];portConstraint=eastwest;fontSize=12;whiteSpace=wrap;html=1;" parent="1" vertex="1">
          <mxGeometry x="540" y="240" width="40" height="30" as="geometry" />
        </mxCell>
      </root>
    </mxGraphModel>
  </diagram>
</mxfile>
